<svg xmlns="http://www.w3.org/2000/svg" xmlns:xlink="http://www.w3.org/1999/xlink" width="2000" zoomAndPan="magnify" viewBox="0 0 1500 1499.999933" height="2000" preserveAspectRatio="xMidYMid meet" version="1.0"><defs><g/><clipPath id="d546443022"><path d="M 558.449219 695 L 848 695 L 848 984.816406 L 558.449219 984.816406 Z M 558.449219 695 " clip-rule="nonzero"/></clipPath><clipPath id="fda3f34773"><path d="M 703 550.566406 L 992.699219 550.566406 L 992.699219 841 L 703 841 Z M 703 550.566406 " clip-rule="nonzero"/></clipPath></defs><path fill="#001842" d="M 703.164062 695.28125 L 847.882812 695.28125 L 847.882812 839.996094 L 703.164062 839.996094 Z M 703.164062 695.28125 " fill-opacity="1" fill-rule="evenodd"/><g clip-path="url(#d546443022)"><path fill="#00daf2" d="M 558.449219 840.097656 L 558.449219 695.28125 L 703.164062 695.28125 L 703.164062 840.097656 L 847.984375 840.097656 L 847.984375 984.816406 L 703.164062 984.816406 L 703.164062 840.097656 Z M 558.449219 840.097656 " fill-opacity="1" fill-rule="evenodd"/></g><g clip-path="url(#fda3f34773)"><path fill="#0a6cff" d="M 703.164062 695.28125 L 703.164062 550.566406 L 992.699219 550.566406 L 992.699219 840.097656 L 847.984375 840.097656 L 847.984375 695.28125 Z M 703.164062 695.28125 " fill-opacity="1" fill-rule="evenodd"/></g><g fill="#001842" fill-opacity="1"><g transform="translate(804.649068, 812.599902)"><g><path d="M 8.40625 0.3125 C 7.21875 0.3125 6.28125 -0.0195312 5.59375 -0.6875 C 4.90625 -1.351562 4.5625 -2.238281 4.5625 -3.34375 C 4.5625 -4.425781 4.90625 -5.316406 5.59375 -6.015625 C 6.28125 -6.710938 7.21875 -7.0625 8.40625 -7.0625 C 9.613281 -7.0625 10.5625 -6.726562 11.25 -6.0625 C 11.9375 -5.394531 12.28125 -4.507812 12.28125 -3.40625 C 12.28125 -2.300781 11.929688 -1.40625 11.234375 -0.71875 C 10.535156 -0.03125 9.59375 0.3125 8.40625 0.3125 Z M 8.40625 0.3125 "/></g></g></g></svg>
